#tb 0: 1/44100
#media_type 0: audio
#codec_id 0: pcm_s16le
#sample_rate 0: 44100
#channel_layout_name 0: stereo
0,          0,          0,     4096,    16384, 0xd230ae62
0,       4096,       4096,     4096,    16384, 0xf4e7b06a
0,       8192,       8192,     4096,    16384, 0x36e0b13a
0,      12288,      12288,     4096,    16384, 0x0d23a812
0,      16384,      16384,     4096,    16384, 0x4c45a9fa
0,      20480,      20480,     4096,    16384, 0x1d54b104
0,      24576,      24576,     4096,    16384, 0xdfd1b066
0,      28672,      28672,     4096,    16384, 0x0320ae62
0,      32768,      32768,     4096,    16384, 0xd230ae62
0,      36864,      36864,     4096,    16384, 0xf4e7b06a
0,      40960,      40960,     4096,    16384, 0x901da22e
0,      45056,      45056,     4096,    16384, 0xe7fea4f6
0,      49152,      49152,     4096,    16384, 0x3cd5c816
0,      53248,      53248,     4096,    16384, 0x4e14b54c
0,      57344,      57344,     4096,    16384, 0xa01ba8d4
0,      61440,      61440,     4096,    16384, 0x82dfc478
0,      65536,      65536,     4096,    16384, 0x950fd4de
0,      69632,      69632,     4096,    16384, 0xea98cca6
0,      73728,      73728,     4096,    16384, 0xb6bba26e
0,      77824,      77824,     4096,    16384, 0x0318a0f0
